<svg id="svg" version="1.1" width="400" height="415.07246376811594" viewBox="0 0 400 415.07246376811594" xmlns="http://www.w3.org/2000/svg" xmlns:xlink="http://www.w3.org/1999/xlink" ><g id="svgg"><path id="path0" d="M123.600 114.200 L 123.600 129.200 186.800 129.200 L 250.000 129.200 250.000 114.200 L 250.000 99.200 186.800 99.200 L 123.600 99.200 123.600 114.200 M123.695 167.899 L 123.800 183.400 186.692 183.501 L 249.584 183.602 249.804 182.701 C 249.924 182.206,249.973 175.230,249.911 167.200 L 249.800 152.600 186.695 152.499 L 123.591 152.398 123.695 167.899 M124.100 205.865 C 123.712 206.021,123.600 209.514,123.600 221.433 L 123.600 236.800 186.800 236.800 L 250.000 236.800 250.000 221.680 C 250.000 210.453,249.876 206.436,249.520 206.080 C 249.038 205.598,125.287 205.386,124.100 205.865 M123.600 274.800 L 123.600 290.406 150.100 290.303 L 176.600 290.200 176.727 289.098 C 176.809 288.379,176.636 287.912,176.227 287.755 C 175.882 287.623,175.600 287.168,175.600 286.745 C 175.600 286.321,175.330 285.871,175.000 285.745 C 174.670 285.618,174.400 285.264,174.400 284.957 C 174.400 284.651,174.220 284.400,174.000 284.400 C 173.306 284.400,172.000 282.833,172.000 282.000 C 172.000 281.560,171.820 281.200,171.600 281.200 C 171.380 281.200,171.200 280.401,171.200 279.424 C 171.200 278.447,171.380 277.536,171.600 277.400 C 171.820 277.264,172.000 276.713,172.000 276.176 C 172.000 275.575,172.231 275.200,172.600 275.200 C 172.930 275.200,173.200 274.930,173.200 274.600 C 173.200 274.270,173.470 274.000,173.800 274.000 C 174.130 274.000,174.400 273.820,174.400 273.600 C 174.400 273.081,175.881 271.600,176.400 271.600 C 176.620 271.600,176.800 271.330,176.800 271.000 C 176.800 270.670,177.070 270.400,177.400 270.400 C 177.730 270.400,178.000 270.216,178.000 269.990 C 178.000 269.496,183.950 263.600,184.449 263.600 C 184.642 263.600,184.800 263.349,184.800 263.043 C 184.800 262.736,185.081 262.378,185.426 262.246 C 185.856 262.080,186.012 261.600,185.926 260.703 L 185.800 259.400 154.700 259.298 L 123.600 259.195 123.600 274.800 M123.600 330.400 L 123.600 346.000 138.567 346.000 C 146.799 346.000,153.819 345.891,154.167 345.757 C 154.976 345.447,154.998 343.462,154.200 342.800 C 153.374 342.115,153.289 320.400,154.113 320.400 C 154.395 320.400,154.666 319.912,154.715 319.314 C 154.765 318.717,155.074 318.078,155.403 317.895 C 155.752 317.699,156.000 316.988,156.000 316.180 L 156.000 314.800 139.800 314.800 L 123.600 314.800 123.600 330.400 " stroke="none" fill="#3192ca" fill-rule="evenodd"></path><path id="path1" d="M126.000 0.400 C 126.000 0.620,125.730 0.800,125.400 0.800 C 125.070 0.800,124.800 1.070,124.800 1.400 C 124.800 1.730,124.622 2.000,124.405 2.000 C 123.623 2.000,122.400 3.396,122.400 4.289 C 122.400 4.832,122.158 5.200,121.800 5.200 C 121.470 5.200,121.200 5.451,121.200 5.757 C 121.200 6.064,120.930 6.418,120.600 6.545 C 120.204 6.697,120.000 7.323,120.000 8.387 C 120.000 9.554,119.834 10.000,119.400 10.000 C 118.970 10.000,118.800 10.439,118.800 11.551 C 118.800 12.442,118.545 13.314,118.200 13.600 C 117.783 13.946,117.600 14.865,117.600 16.606 C 117.600 18.467,117.445 19.174,117.000 19.345 C 116.670 19.471,116.400 20.031,116.400 20.587 L 116.400 21.600 111.800 21.600 C 107.978 21.600,107.200 21.701,107.200 22.200 C 107.200 22.633,106.756 22.800,105.600 22.800 C 104.444 22.800,104.000 22.967,104.000 23.400 C 104.000 23.800,103.600 24.000,102.800 24.000 C 102.140 24.000,101.600 24.180,101.600 24.400 C 101.600 24.620,101.330 24.800,101.000 24.800 C 100.670 24.800,100.400 25.070,100.400 25.400 C 100.400 25.730,100.130 26.000,99.800 26.000 C 99.470 26.000,99.200 26.270,99.200 26.600 C 99.200 26.975,98.821 27.200,98.190 27.200 C 97.388 27.200,97.131 27.447,96.940 28.400 C 96.808 29.060,96.453 29.600,96.150 29.600 C 95.848 29.600,95.600 29.870,95.600 30.200 C 95.600 30.530,95.330 30.800,95.000 30.800 C 94.670 30.800,94.400 31.070,94.400 31.400 C 94.400 31.730,94.220 32.000,94.000 32.000 C 93.780 32.000,93.600 32.540,93.600 33.200 C 93.600 34.000,93.400 34.400,93.000 34.400 C 92.566 34.400,92.400 34.846,92.400 36.013 C 92.400 37.077,92.196 37.703,91.800 37.855 C 90.902 38.200,90.902 51.600,91.800 51.600 C 92.234 51.600,92.400 52.046,92.400 53.213 C 92.400 54.277,92.604 54.903,93.000 55.055 C 93.330 55.182,93.600 55.716,93.600 56.243 C 93.600 56.769,93.780 57.200,94.000 57.200 C 94.220 57.200,94.400 57.470,94.400 57.800 C 94.400 58.130,94.670 58.400,95.000 58.400 C 95.400 58.400,95.600 58.800,95.600 59.600 C 95.600 60.400,95.800 60.800,96.200 60.800 C 96.530 60.800,96.800 61.070,96.800 61.400 C 96.800 61.730,97.070 62.000,97.400 62.000 C 97.730 62.000,98.000 62.270,98.000 62.600 C 98.000 62.930,98.270 63.200,98.600 63.200 C 98.930 63.200,99.200 63.470,99.200 63.800 C 99.200 64.130,99.470 64.400,99.800 64.400 C 100.130 64.400,100.400 64.560,100.400 64.757 C 100.400 64.953,100.872 65.232,101.448 65.376 C 102.025 65.521,102.758 65.901,103.077 66.220 C 103.396 66.539,104.184 66.800,104.829 66.800 C 105.473 66.800,106.000 66.980,106.000 67.200 C 106.000 67.420,106.791 67.600,107.757 67.600 C 108.950 67.600,109.588 67.793,109.745 68.200 C 109.948 68.729,116.056 68.800,161.387 68.800 C 206.821 68.800,212.800 68.730,212.800 68.200 C 212.800 67.739,213.311 67.600,215.000 67.600 C 216.210 67.600,217.200 67.420,217.200 67.200 C 217.200 66.980,217.656 66.800,218.213 66.800 C 218.769 66.800,219.324 66.541,219.446 66.224 C 219.567 65.908,220.192 65.534,220.833 65.393 C 221.475 65.252,222.000 64.971,222.000 64.768 C 222.000 64.566,222.270 64.400,222.600 64.400 C 222.930 64.400,223.200 64.130,223.200 63.800 C 223.200 63.470,223.470 63.200,223.800 63.200 C 224.130 63.200,224.400 62.930,224.400 62.600 C 224.400 62.270,224.670 62.000,225.000 62.000 C 225.330 62.000,225.600 61.730,225.600 61.400 C 225.600 61.070,225.870 60.800,226.200 60.800 C 226.530 60.800,226.800 60.549,226.800 60.243 C 226.800 59.936,227.070 59.582,227.400 59.455 C 227.730 59.329,228.000 58.769,228.000 58.213 C 228.000 57.656,228.180 57.200,228.400 57.200 C 228.620 57.200,228.800 56.930,228.800 56.600 C 228.800 56.270,229.070 56.000,229.400 56.000 C 229.833 56.000,230.000 55.556,230.000 54.400 C 230.000 53.244,230.167 52.800,230.600 52.800 C 231.113 52.800,231.200 51.643,231.200 44.787 C 231.200 38.034,231.106 36.739,230.600 36.545 C 230.270 36.418,230.000 35.884,230.000 35.357 C 230.000 34.773,229.766 34.400,229.400 34.400 C 229.000 34.400,228.800 34.000,228.800 33.200 C 228.800 32.540,228.640 32.000,228.443 32.000 C 228.247 32.000,227.968 31.526,227.822 30.947 C 227.480 29.583,223.217 25.320,221.853 24.978 C 221.274 24.832,220.800 24.553,220.800 24.357 C 220.800 24.160,220.260 24.000,219.600 24.000 C 218.800 24.000,218.400 23.800,218.400 23.400 C 218.400 23.025,218.021 22.800,217.387 22.800 C 216.831 22.800,216.271 22.530,216.145 22.200 C 215.959 21.715,215.039 21.600,211.357 21.600 L 206.800 21.600 206.800 18.600 C 206.800 16.200,206.680 15.600,206.200 15.600 C 205.739 15.600,205.600 15.089,205.600 13.400 C 205.600 12.190,205.420 11.200,205.200 11.200 C 204.980 11.200,204.800 10.660,204.800 10.000 C 204.800 9.200,204.600 8.800,204.200 8.800 C 203.780 8.800,203.600 8.376,203.600 7.387 C 203.600 6.343,203.286 5.666,202.400 4.800 C 201.740 4.155,201.200 3.261,201.200 2.813 C 201.200 2.357,200.937 2.000,200.600 2.000 C 200.270 2.000,200.000 1.730,200.000 1.400 C 200.000 1.070,199.730 0.800,199.400 0.800 C 199.070 0.800,198.800 0.620,198.800 0.400 C 198.800 0.136,186.400 0.000,162.400 0.000 C 138.400 0.000,126.000 0.136,126.000 0.400 M49.345 30.200 C 49.163 30.675,48.327 30.800,45.345 30.800 C 42.363 30.800,41.527 30.925,41.345 31.400 C 41.179 31.831,40.506 32.000,38.957 32.000 C 37.306 32.000,36.800 32.141,36.800 32.600 C 36.800 33.000,36.400 33.200,35.600 33.200 C 34.800 33.200,34.400 33.400,34.400 33.800 C 34.400 34.234,33.954 34.400,32.787 34.400 C 31.723 34.400,31.097 34.604,30.945 35.000 C 30.818 35.330,30.464 35.600,30.157 35.600 C 29.851 35.600,29.600 35.780,29.600 36.000 C 29.600 36.220,29.213 36.400,28.740 36.400 C 27.889 36.400,25.200 38.796,25.200 39.554 C 25.200 39.770,24.705 40.004,24.100 40.073 C 23.236 40.173,22.973 40.436,22.873 41.300 C 22.801 41.930,22.502 42.400,22.173 42.400 C 21.858 42.400,21.600 42.670,21.600 43.000 C 21.600 43.330,21.330 43.600,21.000 43.600 C 20.670 43.600,20.400 43.851,20.400 44.157 C 20.400 44.464,20.130 44.818,19.800 44.945 C 19.470 45.071,19.200 45.521,19.200 45.945 C 19.200 46.368,18.930 46.818,18.600 46.945 C 18.270 47.071,18.000 47.611,18.000 48.145 C 18.000 48.678,17.730 49.218,17.400 49.345 C 16.486 49.695,16.486 379.905,17.400 380.255 C 17.868 380.435,18.000 381.229,18.000 383.855 C 18.000 386.482,18.132 387.276,18.600 387.455 C 18.942 387.587,19.200 388.183,19.200 388.843 C 19.200 389.605,19.405 390.000,19.800 390.000 C 20.200 390.000,20.400 390.400,20.400 391.200 C 20.400 392.000,20.600 392.400,21.000 392.400 C 21.373 392.400,21.600 392.778,21.600 393.400 C 21.600 394.022,21.827 394.400,22.200 394.400 C 22.530 394.400,22.800 394.670,22.800 395.000 C 22.800 395.330,23.070 395.600,23.400 395.600 C 23.730 395.600,24.000 395.870,24.000 396.200 C 24.000 396.530,24.270 396.800,24.600 396.800 C 24.930 396.800,25.200 397.070,25.200 397.400 C 25.200 397.773,25.578 398.000,26.200 398.000 C 26.822 398.000,27.200 398.227,27.200 398.600 C 27.200 399.000,27.600 399.200,28.400 399.200 C 29.200 399.200,29.600 399.400,29.600 399.800 C 29.600 400.200,30.000 400.400,30.800 400.400 C 31.600 400.400,32.000 400.600,32.000 401.000 C 32.000 401.462,32.514 401.600,34.229 401.600 C 35.678 401.600,36.667 401.810,37.058 402.201 C 37.589 402.732,45.697 402.790,106.530 402.701 L 175.400 402.600 175.527 401.500 C 175.617 400.714,175.474 400.400,175.027 400.400 C 174.623 400.400,174.400 400.040,174.400 399.387 C 174.400 398.831,174.130 398.271,173.800 398.145 C 173.470 398.018,173.200 397.664,173.200 397.357 C 173.200 397.051,172.930 396.800,172.600 396.800 C 172.270 396.800,172.000 396.596,172.000 396.346 C 172.000 396.096,171.571 395.494,171.047 395.008 C 170.523 394.522,169.970 393.737,169.820 393.262 C 169.669 392.788,169.378 392.400,169.173 392.400 C 168.968 392.400,168.800 392.130,168.800 391.800 C 168.800 391.470,168.530 391.200,168.200 391.200 C 167.870 391.200,167.600 390.930,167.600 390.600 C 167.600 390.270,167.330 390.000,167.000 390.000 C 166.670 390.000,166.400 389.730,166.400 389.400 C 166.400 389.070,166.130 388.800,165.800 388.800 C 165.425 388.800,165.200 388.421,165.200 387.787 C 165.200 387.231,164.930 386.671,164.600 386.545 C 164.270 386.418,164.000 386.064,164.000 385.757 C 164.000 385.451,163.811 385.200,163.581 385.200 C 163.350 385.200,162.745 384.750,162.235 384.200 C 161.725 383.650,161.104 383.200,160.854 383.200 C 160.604 383.200,160.400 382.930,160.400 382.600 C 160.400 382.270,160.220 382.000,160.000 382.000 C 159.780 382.000,159.600 381.730,159.600 381.400 C 159.600 381.070,159.330 380.800,159.000 380.800 C 158.670 380.800,158.400 380.530,158.400 380.200 C 158.400 379.870,158.130 379.600,157.800 379.600 C 157.470 379.600,157.200 379.330,157.200 379.000 C 157.200 378.670,156.949 378.400,156.643 378.400 C 156.336 378.400,155.982 378.130,155.855 377.800 C 155.703 377.404,155.077 377.200,154.013 377.200 C 152.846 377.200,152.400 377.034,152.400 376.600 C 152.400 376.097,151.556 376.000,147.200 376.000 C 142.844 376.000,142.000 375.903,142.000 375.400 C 142.000 374.882,140.581 374.800,131.633 374.800 C 123.695 374.800,121.228 374.683,121.100 374.300 C 120.824 373.470,86.867 373.359,86.549 374.188 C 86.196 375.108,46.800 375.120,46.800 374.200 C 46.800 373.870,46.530 373.600,46.200 373.600 C 45.668 373.600,45.600 355.822,45.600 216.000 L 45.600 58.400 63.000 58.400 L 80.400 58.400 80.400 44.000 L 80.400 29.600 64.987 29.600 C 51.656 29.600,49.544 29.681,49.345 30.200 M242.000 35.400 C 242.000 38.141,242.159 40.000,242.392 40.000 C 242.634 40.000,242.826 43.489,242.892 49.100 L 243.000 58.200 260.299 58.304 L 277.598 58.408 277.699 156.904 L 277.800 255.400 279.904 255.521 C 281.516 255.614,282.065 255.497,282.247 255.021 C 282.428 254.549,283.101 254.400,285.055 254.400 C 286.971 254.400,287.684 254.247,287.855 253.800 C 288.035 253.332,288.829 253.200,291.455 253.200 C 294.082 253.200,294.876 253.068,295.055 252.600 C 295.245 252.107,296.267 252.000,300.796 252.000 C 307.203 252.000,306.785 252.341,306.795 247.100 C 306.799 244.609,306.682 244.000,306.200 244.000 C 305.669 244.000,305.600 235.132,305.600 166.587 C 305.600 98.145,305.530 89.148,305.000 88.945 C 304.478 88.744,304.400 86.106,304.400 68.557 C 304.400 50.906,304.325 48.400,303.800 48.400 C 303.400 48.400,303.200 48.000,303.200 47.200 C 303.200 46.400,303.000 46.000,302.600 46.000 C 302.200 46.000,302.000 45.600,302.000 44.800 C 302.000 44.000,301.800 43.600,301.400 43.600 C 301.025 43.600,300.800 43.221,300.800 42.587 C 300.800 42.031,300.530 41.471,300.200 41.345 C 299.870 41.218,299.600 40.864,299.600 40.557 C 299.600 40.251,299.330 40.000,299.000 40.000 C 298.670 40.000,298.400 39.730,298.400 39.400 C 298.400 39.070,298.130 38.800,297.800 38.800 C 297.470 38.800,297.200 38.606,297.200 38.369 C 297.200 37.522,294.862 35.600,293.831 35.600 C 293.181 35.600,292.800 35.378,292.800 35.000 C 292.800 34.670,292.549 34.400,292.243 34.400 C 291.936 34.400,291.582 34.130,291.455 33.800 C 291.329 33.470,290.769 33.200,290.213 33.200 C 289.579 33.200,289.200 32.975,289.200 32.600 C 289.200 32.139,288.689 32.000,287.000 32.000 C 285.311 32.000,284.800 31.861,284.800 31.400 C 284.800 30.874,282.156 30.800,263.400 30.800 L 242.000 30.800 242.000 35.400 M72.581 113.200 C 72.581 121.450,72.634 124.825,72.699 120.700 C 72.764 116.575,72.764 109.825,72.699 105.700 C 72.634 101.575,72.581 104.950,72.581 113.200 M72.582 151.702 C 72.477 151.977,72.437 158.862,72.495 167.002 L 72.601 181.800 72.800 166.500 C 72.910 158.085,72.949 151.200,72.887 151.200 C 72.826 151.200,72.688 151.426,72.582 151.702 M72.582 204.901 C 72.477 205.177,72.440 212.152,72.500 220.401 L 72.610 235.400 72.705 220.129 C 72.793 205.968,72.851 204.845,73.500 204.676 C 74.156 204.504,74.155 204.490,73.487 204.446 C 73.096 204.421,72.688 204.626,72.582 204.901 M232.400 247.000 C 232.400 247.373,232.022 247.600,231.400 247.600 C 230.778 247.600,230.400 247.827,230.400 248.200 C 230.400 248.530,230.130 248.800,229.800 248.800 C 229.427 248.800,229.200 249.178,229.200 249.800 C 229.200 250.422,228.973 250.800,228.600 250.800 C 228.120 250.800,228.000 251.400,228.000 253.800 C 228.000 256.200,227.880 256.800,227.400 256.800 C 226.914 256.800,226.800 257.444,226.800 260.200 L 226.800 263.600 225.187 263.600 C 224.123 263.600,223.497 263.804,223.345 264.200 C 223.194 264.592,222.571 264.800,221.545 264.800 C 220.518 264.800,219.895 265.008,219.745 265.400 C 219.618 265.730,219.084 266.000,218.557 266.000 C 217.973 266.000,217.600 266.234,217.600 266.600 C 217.600 267.000,217.200 267.200,216.400 267.200 C 215.600 267.200,215.200 267.400,215.200 267.800 C 215.200 268.200,214.800 268.400,214.000 268.400 C 213.200 268.400,212.800 268.600,212.800 269.000 C 212.800 269.444,212.333 269.600,211.000 269.600 C 209.667 269.600,209.200 269.444,209.200 269.000 C 209.200 268.670,208.930 268.400,208.600 268.400 C 208.270 268.400,208.000 268.130,208.000 267.800 C 208.000 267.470,207.730 267.200,207.400 267.200 C 207.070 267.200,206.800 266.930,206.800 266.600 C 206.800 266.270,206.530 266.000,206.200 266.000 C 205.870 266.000,205.600 265.730,205.600 265.400 C 205.600 265.027,205.222 264.800,204.600 264.800 C 203.978 264.800,203.600 264.573,203.600 264.200 C 203.600 263.870,203.349 263.600,203.043 263.600 C 202.736 263.600,202.382 263.330,202.255 263.000 C 202.070 262.517,201.166 262.400,197.613 262.400 C 193.957 262.400,193.200 262.503,193.200 263.000 C 193.200 263.347,192.838 263.600,192.342 263.600 C 191.487 263.600,185.200 269.595,185.200 270.410 C 185.200 270.625,185.020 270.800,184.800 270.800 C 184.281 270.800,182.800 272.281,182.800 272.800 C 182.800 273.020,182.609 273.200,182.376 273.200 C 181.595 273.200,176.800 278.280,176.800 279.108 C 176.800 279.551,176.530 280.018,176.200 280.145 C 175.737 280.322,175.600 281.095,175.600 283.538 C 175.600 285.863,175.759 286.834,176.200 287.200 C 176.530 287.474,176.800 288.036,176.800 288.449 C 176.800 288.862,177.070 289.200,177.400 289.200 C 177.773 289.200,178.000 289.578,178.000 290.200 C 178.000 290.822,178.227 291.200,178.600 291.200 C 178.930 291.200,179.200 291.470,179.200 291.800 C 179.200 292.130,179.470 292.400,179.800 292.400 C 180.130 292.400,180.400 292.670,180.400 293.000 C 180.400 293.330,180.670 293.600,181.000 293.600 C 181.400 293.600,181.600 294.000,181.600 294.800 C 181.600 295.600,181.800 296.000,182.200 296.000 C 182.530 296.000,182.800 296.270,182.800 296.600 C 182.800 296.930,183.070 297.200,183.400 297.200 C 183.730 297.200,184.000 297.451,184.000 297.757 C 184.000 298.064,183.730 298.418,183.400 298.545 C 183.070 298.671,182.800 299.231,182.800 299.787 C 182.800 300.421,182.575 300.800,182.200 300.800 C 181.756 300.800,181.600 301.267,181.600 302.600 C 181.600 303.933,181.444 304.400,181.000 304.400 C 180.600 304.400,180.400 304.800,180.400 305.600 C 180.400 306.400,180.200 306.800,179.800 306.800 C 179.339 306.800,179.200 307.311,179.200 309.000 C 179.200 310.689,179.061 311.200,178.600 311.200 C 178.270 311.200,178.000 311.470,178.000 311.800 C 178.000 312.261,177.489 312.400,175.800 312.400 C 174.111 312.400,173.600 312.539,173.600 313.000 C 173.600 313.495,172.867 313.600,169.400 313.600 C 165.933 313.600,165.200 313.705,165.200 314.200 C 165.200 314.546,164.839 314.800,164.347 314.800 C 163.878 314.800,162.888 315.443,162.147 316.228 L 160.800 317.657 160.800 331.586 C 160.800 343.598,160.883 345.546,161.400 345.745 C 161.730 345.871,162.000 346.173,162.000 346.416 C 162.000 347.191,163.110 348.000,164.171 348.000 C 164.819 348.000,165.200 348.222,165.200 348.600 C 165.200 349.089,165.867 349.200,168.800 349.200 C 171.733 349.200,172.400 349.311,172.400 349.800 C 172.400 350.286,173.044 350.400,175.800 350.400 L 179.200 350.400 179.200 352.013 C 179.200 353.077,179.404 353.703,179.800 353.855 C 180.142 353.987,180.400 354.583,180.400 355.243 C 180.400 356.005,180.605 356.400,181.000 356.400 C 181.433 356.400,181.600 356.844,181.600 358.000 C 181.600 359.156,181.767 359.600,182.200 359.600 C 182.600 359.600,182.800 360.000,182.800 360.800 C 182.800 361.600,183.000 362.000,183.400 362.000 C 183.844 362.000,184.000 362.467,184.000 363.800 C 184.000 365.133,183.844 365.600,183.400 365.600 C 183.070 365.600,182.800 365.870,182.800 366.200 C 182.800 366.530,182.530 366.800,182.200 366.800 C 181.870 366.800,181.600 367.070,181.600 367.400 C 181.600 367.730,181.330 368.000,181.000 368.000 C 180.670 368.000,180.400 368.251,180.400 368.557 C 180.400 368.864,180.130 369.218,179.800 369.345 C 179.470 369.471,179.200 370.031,179.200 370.587 C 179.200 371.144,179.022 371.600,178.805 371.600 C 178.039 371.600,176.800 372.988,176.800 373.846 C 176.800 374.324,176.530 374.818,176.200 374.945 C 175.736 375.123,175.600 375.901,175.600 378.387 C 175.600 380.976,175.716 381.600,176.200 381.600 C 176.600 381.600,176.800 382.000,176.800 382.800 C 176.800 383.600,177.000 384.000,177.400 384.000 C 177.730 384.000,178.000 384.270,178.000 384.600 C 178.000 384.930,178.270 385.200,178.600 385.200 C 178.930 385.200,179.200 385.470,179.200 385.800 C 179.200 386.130,179.470 386.400,179.800 386.400 C 180.130 386.400,180.400 386.670,180.400 387.000 C 180.400 387.330,180.670 387.600,181.000 387.600 C 181.330 387.600,181.600 387.870,181.600 388.200 C 181.600 388.530,181.870 388.800,182.200 388.800 C 182.530 388.800,182.800 389.070,182.800 389.400 C 182.800 389.730,183.070 390.000,183.400 390.000 C 183.730 390.000,184.000 390.270,184.000 390.600 C 184.000 390.930,184.270 391.200,184.600 391.200 C 184.930 391.200,185.200 391.393,185.200 391.629 C 185.200 392.182,186.218 393.200,186.771 393.200 C 187.007 393.200,187.200 393.470,187.200 393.800 C 187.200 394.130,187.470 394.400,187.800 394.400 C 188.130 394.400,188.400 394.670,188.400 395.000 C 188.400 395.330,188.670 395.600,189.000 395.600 C 189.330 395.600,189.600 395.870,189.600 396.200 C 189.600 396.530,189.870 396.800,190.200 396.800 C 190.530 396.800,190.800 397.070,190.800 397.400 C 190.800 397.730,191.070 398.000,191.400 398.000 C 191.730 398.000,192.000 398.270,192.000 398.600 C 192.000 398.995,192.395 399.200,193.157 399.200 C 193.817 399.200,194.413 399.458,194.545 399.800 C 194.717 400.249,195.434 400.400,197.387 400.400 C 199.443 400.400,200.000 400.272,200.000 399.800 C 200.000 399.376,200.429 399.200,201.460 399.200 C 202.903 399.200,205.600 397.128,205.600 396.020 C 205.600 395.789,205.870 395.600,206.200 395.600 C 206.530 395.600,206.800 395.330,206.800 395.000 C 206.800 394.600,207.200 394.400,208.000 394.400 C 208.800 394.400,209.200 394.200,209.200 393.800 C 209.200 393.470,209.455 393.200,209.767 393.200 C 210.078 393.200,210.403 392.990,210.489 392.732 C 210.680 392.161,213.738 392.214,213.930 392.791 C 214.005 393.016,214.592 393.200,215.233 393.200 C 216.004 393.200,216.400 393.404,216.400 393.800 C 216.400 394.200,216.800 394.400,217.600 394.400 C 218.400 394.400,218.800 394.600,218.800 395.000 C 218.800 395.433,219.244 395.600,220.400 395.600 C 221.556 395.600,222.000 395.767,222.000 396.200 C 222.000 396.644,222.467 396.800,223.800 396.800 L 225.600 396.800 225.600 399.200 C 225.600 401.067,225.733 401.600,226.200 401.600 C 226.697 401.600,226.800 402.357,226.800 406.013 C 226.800 409.566,226.917 410.470,227.400 410.655 C 227.730 410.782,228.000 411.276,228.000 411.754 C 228.000 412.231,228.559 413.112,229.241 413.711 L 230.482 414.800 244.541 414.795 C 258.208 414.789,260.400 414.675,260.400 413.967 C 260.400 413.780,260.940 413.075,261.600 412.400 C 262.730 411.244,262.800 410.987,262.800 407.986 C 262.800 406.129,262.967 404.800,263.200 404.800 C 263.435 404.800,263.600 403.400,263.600 401.400 C 263.600 398.644,263.714 398.000,264.200 398.000 C 264.530 398.000,264.800 397.730,264.800 397.400 C 264.800 396.939,265.313 396.800,267.013 396.800 C 268.610 396.800,269.289 396.633,269.455 396.200 C 269.587 395.858,270.183 395.600,270.843 395.600 C 271.605 395.600,272.000 395.395,272.000 395.000 C 272.000 394.567,272.444 394.400,273.600 394.400 C 274.756 394.400,275.200 394.233,275.200 393.800 C 275.200 393.400,275.600 393.200,276.400 393.200 C 277.060 393.200,277.600 393.020,277.600 392.800 C 277.600 392.580,278.140 392.400,278.800 392.400 C 279.460 392.400,280.000 392.580,280.000 392.800 C 280.000 393.020,280.251 393.200,280.557 393.200 C 280.864 393.200,281.218 393.470,281.345 393.800 C 281.471 394.130,282.031 394.400,282.587 394.400 C 283.221 394.400,283.600 394.625,283.600 395.000 C 283.600 395.330,283.870 395.600,284.200 395.600 C 284.530 395.600,284.800 395.870,284.800 396.200 C 284.800 396.530,285.070 396.800,285.400 396.800 C 285.730 396.800,286.000 397.070,286.000 397.400 C 286.000 397.730,286.270 398.000,286.600 398.000 C 286.930 398.000,287.200 398.270,287.200 398.600 C 287.200 399.033,287.644 399.200,288.800 399.200 C 289.956 399.200,290.400 399.367,290.400 399.800 C 290.400 400.272,290.957 400.400,293.013 400.400 C 294.966 400.400,295.683 400.249,295.855 399.800 C 295.987 399.458,296.583 399.200,297.243 399.200 C 297.965 399.200,298.400 398.991,298.400 398.643 C 298.400 398.336,298.670 397.982,299.000 397.855 C 300.081 397.441,299.635 396.417,297.400 394.183 C 296.190 392.973,295.200 391.807,295.200 391.591 C 295.200 391.376,294.930 391.200,294.600 391.200 C 294.270 391.200,294.000 390.930,294.000 390.600 C 294.000 390.270,293.730 390.000,293.400 390.000 C 293.070 390.000,292.800 389.730,292.800 389.400 C 292.800 389.070,292.542 388.800,292.227 388.800 C 291.597 388.800,291.316 387.358,291.544 385.300 C 291.629 384.525,291.912 384.000,292.244 384.000 C 292.550 384.000,292.800 383.730,292.800 383.400 C 292.800 383.070,293.070 382.800,293.400 382.800 C 293.730 382.800,294.000 382.549,294.000 382.243 C 294.000 381.936,294.270 381.582,294.600 381.455 C 294.930 381.329,295.200 380.879,295.200 380.455 C 295.200 380.032,295.470 379.582,295.800 379.455 C 296.224 379.293,296.400 378.631,296.400 377.200 C 296.400 375.769,296.224 375.107,295.800 374.945 C 295.470 374.818,295.200 374.278,295.200 373.745 C 295.200 373.211,294.930 372.671,294.600 372.545 C 294.209 372.395,294.000 371.772,294.000 370.757 C 294.000 369.640,293.831 369.200,293.400 369.200 C 293.000 369.200,292.800 368.800,292.800 368.000 L 292.800 366.800 288.600 366.800 C 285.133 366.800,284.400 366.695,284.400 366.200 C 284.400 365.827,284.022 365.600,283.400 365.600 C 282.778 365.600,282.400 365.373,282.400 365.000 C 282.400 364.670,282.130 364.400,281.800 364.400 C 281.290 364.400,281.200 363.360,281.200 357.443 C 281.200 351.628,281.298 350.448,281.800 350.255 C 282.130 350.129,282.400 349.569,282.400 349.013 C 282.400 348.098,282.555 348.000,284.000 348.000 C 284.880 348.000,285.600 347.827,285.600 347.616 C 285.600 347.404,287.175 347.179,289.100 347.116 L 292.600 347.000 292.730 345.400 C 292.801 344.520,293.116 343.656,293.430 343.480 C 293.773 343.287,294.000 342.532,294.000 341.580 C 294.000 340.442,294.168 340.000,294.600 340.000 C 295.000 340.000,295.200 339.600,295.200 338.800 C 295.200 337.958,295.394 337.600,295.851 337.600 C 296.626 337.600,296.438 333.546,295.651 333.284 C 295.403 333.201,295.200 332.878,295.200 332.567 C 295.200 332.255,294.930 332.000,294.600 332.000 C 294.270 332.000,294.000 331.730,294.000 331.400 C 294.000 331.070,293.730 330.800,293.400 330.800 C 293.070 330.800,292.800 330.530,292.800 330.200 C 292.800 329.870,292.530 329.600,292.200 329.600 C 291.611 329.600,291.381 328.497,291.553 326.498 C 291.598 325.979,292.811 324.428,294.415 322.840 C 295.947 321.323,297.200 319.884,297.200 319.641 C 297.200 319.399,297.470 319.200,297.800 319.200 C 298.130 319.200,298.400 318.930,298.400 318.600 C 298.400 318.270,298.670 318.000,299.000 318.000 C 299.330 318.000,299.600 317.730,299.600 317.400 C 299.600 317.070,299.870 316.800,300.200 316.800 C 300.530 316.800,300.800 316.530,300.800 316.200 C 300.800 315.756,301.267 315.600,302.600 315.600 C 303.933 315.600,304.400 315.756,304.400 316.200 C 304.400 316.530,304.670 316.800,305.000 316.800 C 305.330 316.800,305.600 317.070,305.600 317.400 C 305.600 317.800,306.000 318.000,306.800 318.000 C 307.600 318.000,308.000 318.200,308.000 318.600 C 308.000 318.930,308.270 319.200,308.600 319.200 C 308.930 319.200,309.200 319.470,309.200 319.800 C 309.200 320.254,309.690 320.400,311.213 320.400 C 312.632 320.400,313.293 320.223,313.455 319.800 C 313.582 319.470,314.122 319.200,314.655 319.200 C 315.189 319.200,315.729 318.930,315.855 318.600 C 315.982 318.270,316.522 318.000,317.055 318.000 C 317.589 318.000,318.129 317.730,318.255 317.400 C 318.405 317.009,319.028 316.800,320.043 316.800 C 321.160 316.800,321.600 316.631,321.600 316.200 C 321.600 315.870,321.870 315.600,322.200 315.600 C 322.633 315.600,322.800 315.156,322.800 314.000 L 322.800 312.400 318.200 312.400 C 314.378 312.400,313.600 312.299,313.600 311.800 C 313.600 311.470,313.330 311.200,313.000 311.200 C 312.600 311.200,312.400 310.800,312.400 310.000 C 312.400 309.200,312.200 308.800,311.800 308.800 C 311.356 308.800,311.200 308.333,311.200 307.000 C 311.200 305.667,311.044 305.200,310.600 305.200 C 310.167 305.200,310.000 304.756,310.000 303.600 C 310.000 302.444,309.833 302.000,309.400 302.000 C 309.004 302.000,308.800 301.604,308.800 300.833 C 308.800 300.192,308.649 299.607,308.463 299.533 C 307.788 299.266,307.605 296.853,308.213 296.244 C 308.536 295.921,308.800 295.194,308.800 294.629 C 308.800 293.981,309.022 293.600,309.400 293.600 C 309.730 293.600,310.000 293.330,310.000 293.000 C 310.000 292.670,310.270 292.400,310.600 292.400 C 310.930 292.400,311.200 292.130,311.200 291.800 C 311.200 291.470,311.470 291.200,311.800 291.200 C 312.173 291.200,312.400 290.822,312.400 290.200 C 312.400 289.578,312.627 289.200,313.000 289.200 C 313.330 289.200,313.600 288.949,313.600 288.643 C 313.600 288.336,313.870 287.982,314.200 287.855 C 314.675 287.673,314.800 286.832,314.800 283.813 C 314.800 280.690,314.691 280.000,314.200 280.000 C 313.800 280.000,313.600 279.600,313.600 278.800 C 313.600 278.140,313.420 277.600,313.200 277.600 C 312.980 277.600,309.668 274.450,305.839 270.600 C 301.234 265.969,298.595 263.600,298.039 263.600 C 297.560 263.600,297.200 263.343,297.200 263.000 C 297.200 261.965,289.057 262.143,288.000 263.200 C 287.560 263.640,287.200 264.180,287.200 264.400 C 287.200 264.620,286.744 264.800,286.187 264.800 C 285.631 264.800,285.071 265.070,284.945 265.400 C 284.818 265.730,284.464 266.000,284.157 266.000 C 283.851 266.000,283.600 266.270,283.600 266.600 C 283.600 266.930,283.330 267.200,283.000 267.200 C 282.670 267.200,282.400 267.470,282.400 267.800 C 282.400 268.130,282.130 268.400,281.800 268.400 C 281.470 268.400,281.200 268.670,281.200 269.000 C 281.200 269.400,280.800 269.600,280.000 269.600 C 279.200 269.600,278.800 269.400,278.800 269.000 C 278.800 268.600,278.400 268.400,277.600 268.400 C 276.800 268.400,276.400 268.200,276.400 267.800 C 276.400 267.434,276.027 267.200,275.443 267.200 C 274.916 267.200,274.382 266.930,274.255 266.600 C 274.103 266.204,273.477 266.000,272.413 266.000 C 271.246 266.000,270.800 265.834,270.800 265.400 C 270.800 265.005,270.405 264.800,269.643 264.800 C 268.983 264.800,268.387 264.542,268.255 264.200 C 268.103 263.804,267.477 263.600,266.413 263.600 L 264.800 263.600 264.800 261.987 C 264.800 260.923,264.596 260.297,264.200 260.145 C 263.723 259.961,263.600 259.106,263.600 255.957 C 263.600 253.586,263.440 252.000,263.200 252.000 C 262.980 252.000,262.800 251.544,262.800 250.987 C 262.800 250.431,262.546 249.878,262.236 249.759 C 261.926 249.639,261.563 249.105,261.428 248.571 C 261.252 247.869,260.909 247.600,260.192 247.600 C 259.577 247.600,259.200 247.372,259.200 247.000 C 259.200 246.479,257.444 246.400,245.800 246.400 C 234.156 246.400,232.400 246.479,232.400 247.000 M72.581 273.400 C 72.581 281.760,72.634 285.237,72.699 281.126 C 72.764 277.016,72.764 270.176,72.700 265.926 C 72.635 261.677,72.582 265.040,72.581 273.400 M252.400 302.400 C 252.400 302.620,253.120 302.800,254.000 302.800 C 255.156 302.800,255.600 302.967,255.600 303.400 C 255.600 303.800,256.000 304.000,256.800 304.000 C 257.600 304.000,258.000 304.200,258.000 304.600 C 258.000 305.000,258.400 305.200,259.200 305.200 C 260.000 305.200,260.400 305.400,260.400 305.800 C 260.400 306.130,260.670 306.400,261.000 306.400 C 261.330 306.400,261.600 306.670,261.600 307.000 C 261.600 307.400,262.000 307.600,262.800 307.600 C 263.600 307.600,264.000 307.800,264.000 308.200 C 264.000 308.530,264.270 308.800,264.600 308.800 C 264.930 308.800,265.200 309.004,265.200 309.254 C 265.200 309.504,265.650 310.125,266.200 310.635 C 266.750 311.145,267.200 311.750,267.200 311.981 C 267.200 312.211,267.470 312.400,267.800 312.400 C 268.173 312.400,268.400 312.778,268.400 313.400 C 268.400 314.022,268.627 314.400,269.000 314.400 C 269.330 314.400,269.600 314.670,269.600 315.000 C 269.600 315.330,269.870 315.600,270.200 315.600 C 270.600 315.600,270.800 316.000,270.800 316.800 C 270.800 317.600,271.000 318.000,271.400 318.000 C 271.800 318.000,272.000 318.400,272.000 319.200 C 272.000 320.000,272.200 320.400,272.600 320.400 C 273.061 320.400,273.200 320.911,273.200 322.600 C 273.200 324.289,273.339 324.800,273.800 324.800 C 274.307 324.800,274.400 325.733,274.400 330.800 C 274.400 335.867,274.307 336.800,273.800 336.800 C 273.369 336.800,273.200 337.240,273.200 338.357 C 273.200 339.372,272.991 339.995,272.600 340.145 C 272.270 340.271,272.000 340.811,272.000 341.345 C 272.000 341.878,271.730 342.418,271.400 342.545 C 271.070 342.671,270.800 343.231,270.800 343.787 C 270.800 344.421,270.575 344.800,270.200 344.800 C 269.800 344.800,269.600 345.200,269.600 346.000 C 269.600 346.800,269.400 347.200,269.000 347.200 C 268.670 347.200,268.400 347.470,268.400 347.800 C 268.400 348.130,268.130 348.400,267.800 348.400 C 267.470 348.400,267.200 348.670,267.200 349.000 C 267.200 349.330,267.007 349.600,266.771 349.600 C 266.218 349.600,265.200 350.618,265.200 351.171 C 265.200 351.407,264.930 351.600,264.600 351.600 C 264.270 351.600,264.000 351.870,264.000 352.200 C 264.000 352.530,263.730 352.800,263.400 352.800 C 263.070 352.800,262.800 353.070,262.800 353.400 C 262.800 353.800,262.400 354.000,261.600 354.000 C 260.800 354.000,260.400 354.200,260.400 354.600 C 260.400 354.975,260.021 355.200,259.387 355.200 C 258.831 355.200,258.271 355.470,258.145 355.800 C 258.018 356.130,257.478 356.400,256.945 356.400 C 256.411 356.400,255.871 356.670,255.745 357.000 C 255.618 357.330,255.084 357.600,254.557 357.600 C 253.973 357.600,253.600 357.834,253.600 358.200 C 253.600 358.689,252.933 358.800,250.000 358.800 C 247.067 358.800,246.400 358.911,246.400 359.400 C 246.400 359.730,246.130 360.000,245.800 360.000 C 245.470 360.000,245.200 359.730,245.200 359.400 C 245.200 358.914,244.560 358.800,241.843 358.800 C 239.228 358.800,238.435 358.667,238.255 358.200 C 238.103 357.804,237.477 357.600,236.413 357.600 C 235.246 357.600,234.800 357.434,234.800 357.000 C 234.800 356.600,234.400 356.400,233.600 356.400 C 232.800 356.400,232.400 356.200,232.400 355.800 C 232.400 355.470,232.149 355.200,231.843 355.200 C 231.536 355.200,231.182 354.930,231.055 354.600 C 230.929 354.270,230.369 354.000,229.813 354.000 C 229.256 354.000,228.800 353.820,228.800 353.600 C 228.800 353.185,227.362 351.600,226.987 351.600 C 226.615 351.600,224.400 349.190,224.400 348.786 C 224.400 348.574,224.130 348.400,223.800 348.400 C 223.470 348.400,223.200 348.130,223.200 347.800 C 223.200 347.470,222.930 347.200,222.600 347.200 C 222.200 347.200,222.000 346.800,222.000 346.000 C 222.000 345.200,221.800 344.800,221.400 344.800 C 221.070 344.800,220.800 344.530,220.800 344.200 C 220.800 343.870,220.530 343.600,220.200 343.600 C 219.800 343.600,219.600 343.200,219.600 342.400 C 219.600 341.600,219.400 341.200,219.000 341.200 C 218.567 341.200,218.400 340.756,218.400 339.600 C 218.400 338.444,218.233 338.000,217.800 338.000 C 217.288 338.000,217.200 336.889,217.200 330.400 C 217.200 323.911,217.288 322.800,217.800 322.800 C 218.195 322.800,218.400 322.405,218.400 321.643 C 218.400 320.983,218.658 320.387,219.000 320.255 C 219.330 320.129,219.600 319.569,219.600 319.013 C 219.600 318.379,219.825 318.000,220.200 318.000 C 220.600 318.000,220.800 317.600,220.800 316.800 C 220.800 316.000,221.000 315.600,221.400 315.600 C 221.773 315.600,222.000 315.222,222.000 314.600 C 222.000 313.978,222.227 313.600,222.600 313.600 C 222.930 313.600,223.200 313.429,223.200 313.219 C 223.200 313.010,224.109 311.930,225.219 310.819 C 226.330 309.709,227.410 308.800,227.619 308.800 C 227.829 308.800,228.000 308.530,228.000 308.200 C 228.000 307.870,228.180 307.600,228.400 307.600 C 228.620 307.600,228.800 307.330,228.800 307.000 C 228.800 306.600,229.200 306.400,230.000 306.400 C 230.800 306.400,231.200 306.200,231.200 305.800 C 231.200 305.400,231.600 305.200,232.400 305.200 C 233.200 305.200,233.600 305.000,233.600 304.600 C 233.600 304.200,234.000 304.000,234.800 304.000 C 235.600 304.000,236.000 303.800,236.000 303.400 C 236.000 302.956,236.467 302.800,237.800 302.800 C 238.790 302.800,239.600 302.620,239.600 302.400 C 239.600 302.150,242.000 302.000,246.000 302.000 C 250.000 302.000,252.400 302.150,252.400 302.400 M240.800 314.200 C 240.800 314.644,240.333 314.800,239.000 314.800 C 237.667 314.800,237.200 314.956,237.200 315.400 C 237.200 315.730,236.945 316.000,236.633 316.000 C 236.322 316.000,236.007 316.135,235.933 316.300 C 235.860 316.465,235.097 316.977,234.237 317.437 C 233.302 317.938,232.338 318.902,231.837 319.837 C 231.377 320.697,230.865 321.460,230.700 321.533 C 230.535 321.607,230.400 322.192,230.400 322.833 C 230.400 323.604,230.196 324.000,229.800 324.000 C 229.339 324.000,229.200 324.511,229.200 326.200 C 229.200 327.889,229.061 328.400,228.600 328.400 C 228.120 328.400,228.000 329.000,228.000 331.400 C 228.000 333.800,228.120 334.400,228.600 334.400 C 229.061 334.400,229.200 334.911,229.200 336.600 C 229.200 338.289,229.339 338.800,229.800 338.800 C 230.180 338.800,230.400 339.183,230.400 339.847 C 230.400 340.543,230.936 341.414,232.000 342.446 C 232.880 343.300,233.600 344.179,233.600 344.400 C 233.600 344.620,233.789 344.800,234.019 344.800 C 234.250 344.800,234.844 345.238,235.339 345.772 C 235.835 346.307,236.726 346.867,237.320 347.016 C 237.914 347.165,238.400 347.447,238.400 347.643 C 238.400 347.840,241.730 348.000,245.800 348.000 C 250.467 348.000,253.200 347.852,253.200 347.600 C 253.200 347.380,253.656 347.200,254.213 347.200 C 254.769 347.200,255.329 346.930,255.455 346.600 C 255.582 346.270,255.936 346.000,256.243 346.000 C 256.549 346.000,256.800 345.730,256.800 345.400 C 256.800 345.070,257.152 344.800,257.582 344.800 C 258.012 344.800,258.822 344.342,259.382 343.782 C 259.942 343.222,260.400 342.412,260.400 341.982 C 260.400 341.552,260.670 341.200,261.000 341.200 C 261.400 341.200,261.600 340.800,261.600 340.000 C 261.600 339.200,261.800 338.800,262.200 338.800 C 262.600 338.800,262.800 338.400,262.800 337.600 C 262.800 336.940,262.980 336.400,263.200 336.400 C 263.445 336.400,263.600 334.467,263.600 331.400 C 263.600 328.333,263.445 326.400,263.200 326.400 C 262.980 326.400,262.800 325.674,262.800 324.787 C 262.800 323.723,262.596 323.097,262.200 322.945 C 261.870 322.818,261.600 322.278,261.600 321.745 C 261.600 321.211,261.330 320.671,261.000 320.545 C 260.670 320.418,260.400 320.064,260.400 319.757 C 260.400 319.451,260.130 319.200,259.800 319.200 C 259.470 319.200,259.200 318.930,259.200 318.600 C 259.200 318.270,259.011 318.000,258.781 318.000 C 258.550 318.000,257.945 317.550,257.435 317.000 C 256.898 316.421,256.065 316.000,255.454 316.000 C 254.784 316.000,254.400 315.782,254.400 315.400 C 254.400 315.000,254.000 314.800,253.200 314.800 C 252.400 314.800,252.000 314.600,252.000 314.200 C 252.000 313.695,251.111 313.600,246.400 313.600 C 241.689 313.600,240.800 313.695,240.800 314.200 M72.495 329.271 C 72.411 342.887,72.475 344.818,73.029 345.371 C 73.583 345.925,75.586 345.989,89.929 345.905 L 106.200 345.809 90.035 345.700 C 79.008 345.626,73.702 345.451,73.340 345.150 C 72.919 344.801,72.787 341.505,72.700 329.255 L 72.590 313.800 72.495 329.271 M368.000 322.925 C 368.000 322.994,368.540 323.568,369.200 324.200 C 370.138 325.099,370.400 325.202,370.400 324.675 C 370.400 324.304,370.130 324.000,369.800 324.000 C 369.470 324.000,369.200 323.730,369.200 323.400 C 369.200 323.070,368.930 322.800,368.600 322.800 C 368.270 322.800,368.000 322.856,368.000 322.925 M370.812 325.438 C 370.799 325.898,372.070 327.200,372.531 327.200 C 372.679 327.200,372.800 327.020,372.800 326.800 C 372.800 326.580,372.539 326.400,372.220 326.400 C 371.901 326.400,371.456 326.085,371.232 325.700 C 371.008 325.315,370.819 325.197,370.812 325.438 M292.800 350.249 C 292.800 350.780,292.909 350.808,293.400 350.400 C 293.730 350.126,294.000 349.834,294.000 349.751 C 294.000 349.668,293.730 349.600,293.400 349.600 C 293.070 349.600,292.800 349.892,292.800 350.249 M346.400 362.600 C 345.992 363.091,346.020 363.200,346.551 363.200 C 346.908 363.200,347.200 362.930,347.200 362.600 C 347.200 362.270,347.132 362.000,347.049 362.000 C 346.966 362.000,346.674 362.270,346.400 362.600 M303.232 377.680 C 303.214 378.054,302.885 378.544,302.500 378.768 C 302.115 378.992,302.003 379.181,302.251 379.188 C 302.911 379.206,303.709 378.109,303.469 377.513 C 303.337 377.183,303.252 377.242,303.232 377.680 M374.832 380.038 C 374.814 380.389,375.205 381.019,375.700 381.438 C 376.592 382.194,376.594 382.193,375.952 381.400 C 375.596 380.960,375.205 380.330,375.084 380.000 C 374.897 379.491,374.858 379.496,374.832 380.038 " stroke="none" fill="#0c4474" fill-rule="evenodd"></path><path id="path2" d="M73.473 97.297 C 72.787 97.799,72.341 127.733,73.003 128.805 C 73.130 129.010,80.336 129.177,89.618 129.191 L 106.009 129.216 105.905 113.108 L 105.800 97.000 89.983 96.895 C 77.719 96.814,74.010 96.905,73.473 97.297 M72.991 151.700 C 72.480 153.085,72.615 181.997,73.133 182.196 C 73.426 182.308,80.941 182.400,89.833 182.400 L 106.000 182.400 106.000 166.800 L 106.000 151.200 89.587 151.200 C 76.822 151.200,73.134 151.311,72.991 151.700 M73.509 204.672 C 72.872 204.841,72.810 206.057,72.709 220.228 L 72.600 235.600 89.305 235.600 L 106.009 235.600 105.905 220.100 L 105.800 204.600 90.000 204.544 C 81.310 204.513,73.889 204.571,73.509 204.672 M72.709 273.834 C 72.600 289.711,72.649 290.330,74.000 290.186 C 74.330 290.151,81.665 290.094,90.300 290.061 L 106.000 290.000 106.000 274.000 L 106.000 258.000 89.409 258.000 L 72.818 258.000 72.709 273.834 M331.200 313.000 C 331.200 313.330,330.905 313.600,330.544 313.600 C 329.527 313.600,328.827 314.837,328.813 316.657 C 328.804 317.752,328.597 318.392,328.200 318.545 C 327.823 318.689,327.600 319.301,327.600 320.187 C 327.600 321.176,327.420 321.600,327.000 321.600 C 326.670 321.600,326.445 321.825,326.500 322.100 C 326.562 322.411,326.045 322.646,325.130 322.722 C 324.322 322.790,323.445 323.105,323.181 323.422 C 322.918 323.740,322.358 324.000,321.938 324.000 C 321.519 324.000,321.071 324.270,320.945 324.600 C 320.818 324.930,320.363 325.200,319.934 325.200 C 319.504 325.200,319.264 325.020,319.400 324.799 C 319.537 324.579,319.176 324.219,318.600 324.000 C 318.024 323.781,317.640 323.459,317.748 323.284 C 317.856 323.109,317.564 322.937,317.099 322.902 C 316.634 322.867,316.097 322.560,315.907 322.219 C 315.408 321.328,309.200 321.310,309.200 322.200 C 309.200 322.530,308.930 322.800,308.600 322.800 C 308.270 322.800,308.000 323.070,308.000 323.400 C 308.000 323.730,307.730 324.000,307.400 324.000 C 307.070 324.000,306.800 324.270,306.800 324.600 C 306.800 324.930,306.530 325.200,306.200 325.200 C 305.870 325.200,305.600 325.470,305.600 325.800 C 305.600 326.130,305.428 326.400,305.219 326.400 C 305.009 326.400,303.982 327.255,302.936 328.300 C 300.818 330.416,299.764 335.627,301.332 336.229 C 301.673 336.360,302.069 337.005,302.214 337.662 C 302.358 338.319,302.573 338.760,302.691 338.642 C 302.809 338.524,303.242 338.854,303.653 339.377 C 304.564 340.535,304.655 342.400,303.800 342.400 C 303.415 342.400,303.195 342.795,303.187 343.500 C 303.180 344.105,302.910 344.949,302.587 345.376 C 302.264 345.804,302.000 346.651,302.000 347.260 C 302.000 348.363,301.992 348.367,298.900 348.483 C 296.681 348.567,295.828 348.742,295.900 349.100 C 295.958 349.391,295.591 349.600,295.020 349.600 C 292.591 349.600,291.885 351.688,291.840 359.015 C 291.810 364.036,291.919 365.599,292.300 365.599 C 292.591 365.600,292.800 366.112,292.800 366.824 C 292.800 367.497,292.956 367.951,293.147 367.833 C 293.337 367.715,293.791 367.948,294.156 368.351 C 294.674 368.924,295.492 369.102,297.904 369.165 C 300.913 369.245,302.719 369.960,302.167 370.853 C 302.049 371.044,302.233 371.200,302.576 371.200 C 303.122 371.200,303.452 372.442,303.244 373.711 C 303.216 373.882,303.464 374.127,303.796 374.254 C 304.444 374.503,304.673 377.200,304.047 377.200 C 303.852 377.200,303.594 377.578,303.474 378.040 C 303.334 378.575,303.076 378.771,302.765 378.578 C 302.453 378.385,302.379 378.443,302.562 378.738 C 302.719 378.992,302.657 379.200,302.424 379.200 C 302.191 379.200,302.000 379.545,302.000 379.967 C 302.000 380.388,301.775 380.808,301.500 380.900 C 301.172 381.009,300.974 382.058,300.923 383.954 L 300.846 386.842 302.623 388.645 C 303.600 389.636,304.400 390.616,304.400 390.824 C 304.400 391.031,304.558 391.155,304.752 391.100 C 304.945 391.045,305.567 391.495,306.133 392.100 C 306.699 392.705,307.350 393.200,307.581 393.200 C 307.811 393.200,308.000 393.470,308.000 393.800 C 308.000 394.130,308.270 394.400,308.600 394.400 C 308.930 394.400,309.200 394.670,309.200 395.000 C 309.200 395.795,315.816 395.891,316.135 395.100 C 316.296 394.700,316.343 394.700,316.368 395.100 C 316.387 395.396,316.768 395.232,317.300 394.700 C 317.795 394.205,318.155 393.665,318.100 393.500 C 318.045 393.335,318.371 393.200,318.824 393.200 C 319.277 393.200,319.548 393.039,319.426 392.842 C 319.304 392.645,319.488 392.375,319.834 392.242 C 320.672 391.921,322.455 392.387,322.168 392.853 C 322.043 393.055,322.089 393.194,322.270 393.163 C 323.314 392.981,324.812 393.257,324.605 393.592 C 324.469 393.811,325.077 394.099,325.981 394.243 L 327.600 394.502 327.600 397.823 C 327.600 400.241,327.763 401.306,328.200 401.743 C 328.530 402.073,328.800 402.626,328.800 402.971 C 328.800 403.333,329.139 403.600,329.600 403.600 C 330.044 403.600,330.400 403.867,330.400 404.200 C 330.400 404.712,331.513 404.800,338.013 404.800 C 344.410 404.800,345.662 404.704,345.855 404.200 C 345.982 403.870,346.262 403.600,346.479 403.600 C 347.739 403.600,348.373 401.772,348.387 398.100 L 348.400 394.400 349.980 394.400 C 350.946 394.400,351.687 394.174,351.885 393.819 C 352.064 393.499,352.872 393.193,353.679 393.139 C 354.487 393.084,355.069 392.911,354.972 392.754 C 354.718 392.344,355.617 392.114,356.680 392.317 C 357.181 392.413,357.492 392.651,357.372 392.846 C 357.251 393.041,357.478 393.208,357.876 393.217 C 358.274 393.226,359.042 393.766,359.581 394.417 C 360.529 395.560,360.679 395.600,364.000 395.600 C 367.321 395.600,367.471 395.560,368.419 394.417 C 368.958 393.766,369.625 393.226,369.900 393.217 C 370.175 393.208,370.355 393.065,370.300 392.900 C 370.245 392.735,370.350 392.600,370.532 392.600 C 370.715 392.600,371.114 392.150,371.418 391.600 C 371.723 391.050,371.978 390.716,371.986 390.859 C 371.994 391.001,372.681 390.461,373.512 389.659 C 374.344 388.856,374.957 388.055,374.876 387.879 C 374.794 387.702,375.076 387.252,375.502 386.879 C 376.133 386.326,376.251 385.791,376.135 384.000 C 375.938 380.969,375.907 380.810,375.567 381.020 C 375.403 381.122,374.878 380.574,374.402 379.802 C 373.925 379.031,373.369 378.400,373.167 378.400 C 372.965 378.400,372.800 378.149,372.800 377.843 C 372.800 377.536,372.505 377.173,372.146 377.034 C 371.540 376.802,371.540 376.730,372.146 376.060 C 372.505 375.662,372.800 374.965,372.800 374.511 C 372.800 374.057,373.070 373.582,373.400 373.455 C 373.754 373.319,374.000 372.719,374.000 371.989 C 374.000 371.309,374.167 370.856,374.371 370.982 C 374.576 371.109,374.801 370.816,374.871 370.333 C 375.025 369.284,376.343 368.849,378.962 368.984 C 379.973 369.036,380.800 368.907,380.800 368.697 C 380.800 368.486,381.079 368.422,381.421 368.553 C 381.777 368.689,381.937 368.622,381.797 368.395 C 381.663 368.178,381.850 368.000,382.214 368.000 C 382.577 368.000,382.972 367.630,383.090 367.177 C 383.218 366.689,383.528 366.440,383.853 366.565 C 384.305 366.738,384.400 365.382,384.400 358.787 C 384.400 351.954,384.313 350.800,383.800 350.800 C 383.470 350.800,383.200 350.530,383.200 350.200 C 383.200 349.870,382.949 349.600,382.643 349.600 C 382.336 349.600,381.982 349.330,381.855 349.000 C 381.677 348.536,380.899 348.400,378.413 348.400 C 375.506 348.400,375.200 348.326,375.200 347.629 C 375.200 347.204,374.930 346.587,374.600 346.257 C 374.270 345.927,374.000 345.203,374.000 344.648 C 374.000 344.094,373.733 343.490,373.407 343.308 C 371.869 342.447,373.041 337.600,374.787 337.600 C 375.001 337.600,375.071 337.330,374.945 337.000 C 374.818 336.670,374.914 336.400,375.157 336.400 C 375.401 336.400,375.562 336.265,375.515 336.100 C 375.468 335.935,375.653 335.398,375.925 334.907 C 376.656 333.589,376.268 331.454,375.060 330.152 C 374.477 329.523,373.998 328.826,373.995 328.604 C 373.992 328.382,373.355 327.789,372.580 327.286 C 371.760 326.755,371.286 326.185,371.447 325.925 C 371.615 325.652,371.543 325.588,371.262 325.762 C 371.008 325.919,370.800 325.857,370.800 325.624 C 370.800 325.391,370.628 325.200,370.418 325.200 C 369.922 325.200,368.000 323.278,368.000 322.782 C 368.000 322.572,367.809 322.400,367.576 322.400 C 367.343 322.400,367.249 322.244,367.368 322.052 C 367.486 321.861,365.966 321.672,363.991 321.632 C 360.982 321.571,360.400 321.660,360.400 322.180 C 360.400 322.521,360.167 322.800,359.881 322.800 C 359.596 322.800,358.921 323.332,358.381 323.983 C 357.419 325.143,356.400 325.573,356.400 324.818 C 356.400 324.608,355.759 324.316,354.976 324.169 C 354.070 323.999,353.622 323.720,353.744 323.401 C 353.850 323.125,353.726 322.905,353.468 322.913 C 351.456 322.970,350.400 322.736,350.400 322.233 C 350.400 321.922,350.212 321.604,349.982 321.527 C 349.752 321.451,349.536 321.006,349.500 320.538 C 349.460 320.007,349.235 319.765,348.902 319.893 C 348.608 320.006,348.396 319.941,348.431 319.749 C 348.742 318.044,348.329 314.800,347.800 314.800 C 347.470 314.800,347.200 314.530,347.200 314.200 C 347.200 313.870,346.949 313.600,346.643 313.600 C 346.336 313.600,345.982 313.330,345.855 313.000 C 345.662 312.497,344.455 312.400,338.413 312.400 C 332.268 312.400,331.200 312.489,331.200 313.000 M72.800 329.151 C 72.800 341.811,72.902 344.786,73.347 345.156 C 73.739 345.481,78.403 345.580,89.847 345.505 L 105.800 345.400 105.905 329.500 L 106.009 313.600 89.405 313.600 L 72.800 313.600 72.800 329.151 M342.945 344.200 C 343.071 344.530,343.631 344.800,344.187 344.800 C 344.744 344.800,345.200 344.980,345.200 345.200 C 345.200 345.420,345.442 345.600,345.739 345.600 C 346.035 345.600,346.693 345.960,347.200 346.400 C 347.707 346.840,348.285 347.200,348.485 347.200 C 348.684 347.200,348.736 347.380,348.600 347.600 C 348.464 347.820,348.633 348.000,348.976 348.000 C 349.319 348.000,349.600 348.270,349.600 348.600 C 349.600 348.930,349.870 349.200,350.200 349.200 C 350.752 349.200,350.962 349.776,350.903 351.127 C 350.890 351.419,351.130 351.559,351.440 351.440 C 351.843 351.286,352.000 351.559,352.000 352.413 C 352.000 353.213,352.200 353.600,352.613 353.600 C 353.134 353.600,353.209 354.275,353.113 358.100 C 353.041 360.965,352.847 362.573,352.580 362.527 C 352.349 362.486,352.118 363.077,352.067 363.840 C 351.977 365.170,350.839 366.800,350.000 366.800 C 349.780 366.800,349.621 366.935,349.647 367.100 C 349.800 368.069,349.522 368.800,349.000 368.800 C 348.670 368.800,348.400 368.991,348.400 369.224 C 348.400 369.457,348.220 369.536,348.000 369.400 C 347.780 369.264,347.600 369.433,347.600 369.776 C 347.600 370.130,347.259 370.400,346.813 370.400 C 346.277 370.400,346.099 370.592,346.255 371.000 C 346.429 371.452,346.187 371.600,345.276 371.600 C 344.611 371.600,344.007 371.768,343.933 371.973 C 343.860 372.178,343.080 372.403,342.200 372.473 C 341.320 372.543,340.362 372.825,340.071 373.100 C 339.463 373.676,336.800 373.783,336.800 373.232 C 336.800 373.029,336.215 372.750,335.500 372.612 C 332.606 372.051,330.800 371.398,330.800 370.913 C 330.800 370.631,330.429 370.400,329.976 370.400 C 329.523 370.400,329.264 370.220,329.400 370.000 C 329.536 369.780,329.469 369.600,329.251 369.600 C 329.032 369.600,328.732 369.216,328.583 368.747 C 328.371 368.077,328.237 368.013,327.962 368.447 C 327.687 368.882,327.611 368.845,327.606 368.276 C 327.603 367.878,327.422 367.663,327.205 367.797 C 326.970 367.942,326.916 367.763,327.073 367.355 C 327.251 366.889,327.185 366.762,326.868 366.958 C 326.586 367.133,326.400 366.995,326.400 366.611 C 326.400 366.261,326.130 365.871,325.800 365.745 C 325.470 365.618,325.200 365.187,325.200 364.786 C 325.200 364.385,324.930 363.787,324.600 363.457 C 324.135 362.992,324.000 361.802,324.000 358.162 C 324.000 355.580,324.135 353.603,324.300 353.769 C 324.465 353.936,324.803 353.381,325.052 352.536 C 325.301 351.691,325.668 351.033,325.869 351.072 C 326.070 351.112,326.259 350.814,326.289 350.409 C 326.359 349.483,327.605 348.000,328.313 348.000 C 328.607 348.000,328.756 347.852,328.644 347.671 C 328.219 346.984,331.770 344.828,333.548 344.694 C 334.017 344.659,334.400 344.398,334.400 344.115 C 334.400 343.304,342.632 343.386,342.945 344.200 M336.000 350.000 C 336.000 350.220,335.563 350.400,335.029 350.400 C 334.494 350.400,333.776 350.681,333.433 351.025 C 333.089 351.368,332.452 351.676,332.017 351.709 C 331.500 351.748,331.142 352.155,330.982 352.884 C 330.847 353.498,330.571 354.000,330.368 354.000 C 330.166 354.000,330.000 354.745,330.000 355.656 C 330.000 356.764,329.771 357.479,329.308 357.818 C 328.652 358.298,328.652 358.399,329.308 359.776 C 329.689 360.574,330.000 361.677,330.000 362.226 C 330.000 362.776,330.270 363.329,330.600 363.455 C 330.930 363.582,331.200 364.014,331.200 364.416 C 331.200 364.817,331.560 365.260,332.000 365.400 C 332.440 365.540,332.800 365.800,332.800 365.978 C 332.800 366.157,333.338 366.526,333.995 366.798 C 334.652 367.070,335.109 367.424,335.010 367.584 C 334.783 367.951,339.760 368.130,340.822 367.793 C 341.256 367.655,341.508 367.375,341.382 367.171 C 341.186 366.854,342.343 366.601,343.300 366.753 C 343.465 366.779,343.600 366.530,343.600 366.200 C 343.600 365.870,343.870 365.600,344.200 365.600 C 344.530 365.600,344.800 365.349,344.800 365.043 C 344.800 364.736,345.070 364.382,345.400 364.255 C 345.730 364.129,346.000 363.654,346.000 363.200 C 346.000 362.746,346.270 362.271,346.600 362.145 C 347.062 361.968,347.199 361.209,347.195 358.857 C 347.189 355.492,346.898 353.892,346.355 354.228 C 346.160 354.349,346.000 354.203,346.000 353.905 C 346.000 353.607,345.468 352.921,344.817 352.381 C 344.166 351.842,343.626 351.214,343.617 350.987 C 343.608 350.760,343.113 350.534,342.518 350.485 C 341.922 350.436,341.256 350.216,341.038 349.998 C 340.518 349.478,336.000 349.480,336.000 350.000 " stroke="none" fill="#0474b4" fill-rule="evenodd"></path><path id="path3" d="" stroke="none" fill="#144474" fill-rule="evenodd"></path><path id="path4" d="M82.300 290.299 C 86.535 290.364,93.465 290.364,97.700 290.299 C 101.935 290.235,98.470 290.182,90.000 290.182 C 81.530 290.182,78.065 290.235,82.300 290.299 M291.758 359.400 C 291.758 362.480,291.821 363.687,291.897 362.082 C 291.973 360.478,291.973 357.958,291.896 356.482 C 291.819 355.007,291.757 356.320,291.758 359.400 " stroke="none" fill="#2c788c" fill-rule="evenodd"></path></g></svg>